Coordinates
version=1
nRows=5
nColumns=42
inDegrees=yes

Units are S.I. units (second, meters, Newtons, ...)
If the header above contains a line with 'inDegrees', this indicates whether rotational values are in degrees (yes) or radians (no).

endheader
time	pelvis_tilt	pelvis_list	pelvis_rotation	pelvis_tx	pelvis_ty	pelvis_tz	hip_flexion_r	hip_adduction_r	hip_rotation_r	knee_angle_r	knee_adduction_r	knee_angle_r_beta	ankle_angle_r	subtalar_angle_r	mtp_angle_r	hip_flexion_l	hip_adduction_l	hip_rotation_l	knee_angle_l	knee_adduction_l	knee_angle_l_beta	ankle_angle_l	subtalar_angle_l	mtp_angle_l	lumbar_extension	lumbar_bending	lumbar_rotation	arm_flex_r	arm_add_r	arm_rot_r	elbow_flex_r	pro_sup_r	wrist_flex_r	wrist_dev_r	arm_flex_l	arm_add_l	arm_rot_l	elbow_flex_l	pro_sup_l	wrist_flex_l	wrist_dev_l
      1.06000000	      3.37454880	      5.34466616	     20.64638310	      0.11609268	      0.89919868	      0.46634930	      5.61412402	     -4.69315047	    -31.12932098	     25.25009428	     -3.52959676	      0.44069728	     17.32704750	      9.74787755	     -7.70479712	     12.77066923	     -9.52487074	      2.13038047	     35.15960278	      6.18183023	      0.61365083	      9.03638349	     20.20999232	     -7.70479712	    -21.52543294	     -4.79243594	     -6.22964335	    -10.36671169	    -21.71848919	    -26.59616733	     62.44858958	     90.00000001	      0.00000000	      0.00000000	      1.81829688	    -18.39217216	     21.27340431	     89.40116683	     90.00000001	      0.00000000	      0.00000000
      1.07000000	      3.54091062	      5.51230286	     20.64327385	      0.11789978	      0.89965737	      0.46771376	      5.15381672	     -4.67824254	    -31.20097990	     25.05608681	     -3.41248768	      0.43731121	     17.37386698	      9.74883305	     -7.70352937	     13.23646436	     -9.65427611	      2.44060813	     35.32868047	      6.24640383	      0.61660179	      8.72301980	     20.27364374	     -7.70352937	    -21.77467208	     -5.00578861	     -5.98801202	    -10.63217330	    -21.92046806	    -26.89560215	     62.23909954	     90.00000001	      0.00000000	      0.00000000	      1.71856560	    -18.45990633	     21.24022563	     89.49538647	     90.00000001	      0.00000000	      0.00000000
      1.08000000	      3.87397381	      5.62045197	     20.68233692	      0.11963738	      0.90026094	      0.46913038	      4.52621414	     -4.46870620	    -31.28894351	     24.75780414	     -3.36937067	      0.43210520	     17.45085531	      9.94000455	     -7.70022658	     13.60592616	     -9.97474237	      2.66125942	     35.32992428	      6.35326498	      0.61662350	      8.04941883	     20.36882554	     -7.70022658	    -22.19160233	     -5.09703739	     -5.72115079	    -10.73319007	    -21.89457335	    -27.70315262	     61.85617989	     90.00000001	      0.00000000	      0.00000000	      1.76143827	    -18.52744253	     21.26283242	     89.88935949	     90.00000001	      0.00000000	      0.00000000
      1.09000000	      3.98001802	      5.78107447	     20.60215976	      0.12116491	      0.90053682	      0.47054551	      4.32894412	     -4.46021560	    -31.05307715	     24.89329787	     -3.34544698	      0.43447001	     17.37748260	      9.93599509	     -7.69873394	     14.21973208	    -10.07113819	      2.64696987	     35.26018325	      6.27287585	      0.61540629	      8.01828965	     20.25238144	     -7.69873394	    -22.37924284	     -5.35685921	     -5.55301030	    -10.70066884	    -21.96465090	    -27.68944562	     61.88652887	     90.00000001	      0.00000000	      0.00000000	      1.69585938	    -18.56342238	     21.20476510	     89.83905567	     90.00000001	      0.00000000	      0.00000000
      1.10000000	      4.08403668	      5.90510692	     20.64852374	      0.12283798	      0.90087029	      0.47170534	      3.88825464	     -4.47131035	    -31.31904897	     24.56517970	     -3.13761750	      0.42874327	     17.47427784	      9.87664754	     -7.69793000	     14.88421970	    -10.16960900	      2.57138938	     35.01239335	      6.10398352	      0.61108154	      7.98523906	     20.16186422	     -7.69793000	    -22.53397901	     -5.51441369	     -5.30960258	    -11.02449700	    -22.28218569	    -27.98395668	     61.68545124	     90.00000001	      0.00000000	      0.00000000	      1.64630929	    -18.80624177	     21.04458349	     89.91630768	     90.00000001	      0.00000000	      0.00000000
